<?xml version="1.0" encoding="utf-8"?>
<!-- Uploaded to: SVG Repo, www.svgrepo.com, Generator: SVG Repo Mixer Tools -->
<svg width="800px" height="800px" viewBox="0 0 1024 1024" class="icon"  version="1.1" xmlns="http://www.w3.org/2000/svg"><path d="M993.763 493.538v35c0 13.331-6.04 26.664-18.135 37.137-140.149 121.422-280.35 242.795-420.49 364.219-11.813 10.237-25.813 15.501-42.454 15.501v-35c16.644 0 30.641-5.264 42.454-15.501C695.28 773.47 835.474 652.092 975.628 530.677c12.095-10.475 18.135-23.803 18.135-37.139z" fill="#E9E693" /><path d="M30.239 528.367v-3.5-1.75-3.5-3.5-1.75-3.5-3.5-1.75-3.5-3.5-1.75-3.5c0 14.707 6.701 29.313 19.037 40.019 138.449 120.064 277.049 239.996 415.562 360.02 13.002 11.26 28.74 16.466 47.853 16.994v35c-19.108-0.528-34.851-5.734-47.853-16.994C326.325 808.382 187.725 688.45 49.276 568.386c-12.337-10.705-19.037-25.312-19.037-40.019z" fill="#E9E693" /><path d="M510.786 76.601c16.263 0 32.546 5.362 44.946 16.097 139.949 121.188 279.9 242.376 419.818 363.586 24.241 20.995 24.295 53.413 0.079 74.396C835.48 652.101 695.28 773.478 555.141 894.898c-11.814 10.238-25.813 15.502-42.451 15.502-19.109-0.528-34.853-5.734-47.854-16.994C326.324 773.382 187.724 653.45 49.275 533.386c-19.581-16.987-24.96-43.81-11.895-65.251 3.919-6.438 8.669-11.829 14.465-16.849C189.954 331.734 328.024 212.152 466.107 92.567c12.296-10.64 28.478-15.966 44.679-15.966z" fill="#F4F083" /><path d="M283.908 339.881v-1.68-0.84-1.68-1.68-0.84-1.68-1.68-0.84-1.68-1.68-0.84-1.68c0 8.196 4.606 11.95 14.608 11.95 80.187 0 160.373-0.008 240.569-0.008 1.066 0 2.13 0.022 3.196 0.022 0.427 0 0.854-0.004 1.599-0.017v16.8c-0.744 0.013-1.172 0.017-1.599 0.017-1.066 0-2.13-0.022-3.196-0.022-80.197 0-160.384 0.008-240.569 0.008-10.002-0.001-14.608-3.756-14.608-11.95z" fill="#ABB0A9" /><path d="M543.88 335.025v16.8a86.47 86.47 0 0 1-1.598 0.017c-1.066 0-2.131-0.022-3.197-0.022-80.197 0-160.383 0.009-240.568 0.009-10.003 0-14.609-3.755-14.609-11.951v-16.8c0 8.194 4.606 11.949 14.609 11.949 80.187 0 160.371-0.009 240.568-0.009 1.066 0 2.131 0.023 3.197 0.023 0.428 0.001 0.855-0.003 1.598-0.016" fill="#ABB0A9" /><path d="M549.48 340.224v16.8c0.026-3.443-1.693-5.197-5.602-5.197v-16.8c3.909-0.002 5.63 1.754 5.602 5.197z" fill="#ABB0A9" /><path d="M549.48 340.224v16.8c0.026-3.443-1.693-5.197-5.602-5.197v-16.8c3.909-0.002 5.63 1.754 5.602 5.197" fill="#ABB0A9" /><path d="M317.427 405.971c-4.753 0.183-6.92 2.528-7.114 6.467v-1.965-2.082-2.159-2.199-2.195-2.16-2.079-1.961c0.193-3.939 2.36-6.285 7.114-6.468 0.003 5.596 0.005 11.191 0.005 16.787V389.17c1.642-0.06 3.273-0.14 4.915-0.14a1606462.692 1606462.692 0 0 1 277.684 0l1.018-0.001V405.83l-1.018 0.001a1606506.082 1606506.082 0 0 0-277.684 0c-1.644 0-3.276 0.077-4.92 0.14z" fill="#ABB0A9" /><path d="M611.961 397.695v16.801c0-0.656-0.013-1.31-0.057-1.96-0.322-4.513-1.794-5.918-6.967-6.538a21.371 21.371 0 0 0-1.434-0.119 42.559 42.559 0 0 0-2.056-0.048h-1.42a1606508.973 1606508.973 0 0 0-277.683 0c-1.644 0-3.276 0.078-4.919 0.141-0.443 0.017-0.866 0.052-1.266 0.106v-16.799c0.399-0.055 0.82-0.091 1.266-0.108 1.643-0.06 3.276-0.14 4.919-0.14a1606439.551 1606439.551 0 0 1 277.683 0h1.42a41.37 41.37 0 0 1 2.056 0.048c0.48 0.025 0.959 0.063 1.434 0.119 5.172 0.62 6.643 2.025 6.967 6.538 0.045 0.651 0.057 1.306 0.057 1.959" fill="#ABB0A9" /><path d="M316.163 389.278v16.799a9.22 9.22 0 0 0-1.925 0.462v-16.8a9.175 9.175 0 0 1 1.925-0.461M314.238 389.74v16.8a6.445 6.445 0 0 0-1.26 0.617v-16.8a6.39 6.39 0 0 1 1.26-0.617M312.977 390.356v16.8c-0.466 0.298-0.869 0.65-1.211 1.054v-16.8a5.407 5.407 0 0 1 1.211-1.054" fill="#ABB0A9" /><path d="M311.767 391.411v16.8c-0.879 1.041-1.347 2.42-1.445 4.096v-16.8c0.098-1.674 0.566-3.057 1.445-4.096M310.319 395.507v16.8l-0.011 0.141a83.298 83.298 0 0 0-0.08 3.876v-16.8c0-1.292 0.019-2.593 0.08-3.876 0.005-0.049 0.008-0.095 0.011-0.141" fill="#ABB0A9" /><path d="M641.754 428.047c0.002-1.888 0.021-3.778 0.021-5.666 0-0.912-0.016-1.822-0.021-2.734-0.018-2.8 0-5.6 0-8.4 19.521-7.703 39.104-15.309 58.422-23.395V404.653c-19.321 8.086-38.901 15.691-58.422 23.394z" fill="#ABB0A9" /><path d="M700.818 387.598v16.801c-0.215 0.078-0.429 0.161-0.644 0.251-19.335 8.094-38.931 15.705-58.465 23.414-0.621 0.244-1.151 0.498-1.599 0.783v-16.8c0.444-0.284 0.977-0.539 1.599-0.783 19.534-7.708 39.13-15.32 58.465-23.413 0.217-0.09 0.43-0.174 0.644-0.253" fill="#ABB0A9" /><path d="M324.041 569.076v16.801c-0.8 0-1.596 0.004-2.393 0.004v-16.8c0.797 0 1.593-0.005 2.393-0.005z" fill="#ABB0A9" /><path d="M324.041 569.076v16.801c-0.8 0-1.596 0.004-2.393 0.004v-16.8c0.797 0 1.593-0.005 2.393-0.005" fill="#ABB0A9" /><path d="M321.648 569.081v16.8c-0.398 0-0.797 0-1.196-0.004-8.407-0.096-10.202-1.615-10.211-8.975-0.011-9.407-0.016-18.813-0.018-28.221V531.88c0.001 9.406 0.005 18.814 0.018 28.221 0.009 7.359 1.805 8.878 10.211 8.975 0.4 0.005 0.798 0.005 1.196 0.005z" fill="#ABB0A9" /><path d="M321.648 569.081v16.8c-0.398 0-0.797 0-1.196-0.004-8.407-0.096-10.202-1.615-10.211-8.975-0.011-9.407-0.016-18.813-0.018-28.221V531.88c0.001 9.406 0.005 18.814 0.018 28.221 0.009 7.359 1.805 8.878 10.211 8.975 0.4 0.005 0.798 0.005 1.196 0.005" fill="#ABB0A9" /><path d="M461.188 389.023c46.279 0 92.561 0.001 138.843 0.007l1.059-0.001c1.05 0.003 1.733 0.013 2.417 0.048 0.481 0.025 0.96 0.063 1.434 0.119 5.172 0.62 6.645 2.025 6.968 6.538 0.043 0.652 0.056 1.306 0.056 1.959 0 0.51-0.007 1.02-0.007 1.531 0 53.269 0 106.535-0.011 159.803 0 1.292-0.011 2.584-0.079 3.878-0.191 3.621-2.158 5.82-6.572 5.996-1.783 0.069-3.57 0.164-5.363 0.164-46.276 0.011-92.554 0.011-138.841 0.011H324.045c-0.8 0-1.594 0.005-2.393 0.005-0.398 0-0.797 0-1.196-0.005-8.407-0.097-10.202-1.614-10.212-8.975-0.011-9.408-0.016-18.813-0.017-28.221 0-15.679 0.008-31.352 0.008-47.027V399.52c0-1.292 0.019-2.593 0.081-3.876 0.192-3.945 2.359-6.294 7.117-6.477 1.643-0.062 3.276-0.14 4.919-0.14 46.276-0.002 92.557-0.004 138.836-0.004z" fill="#F0F4CA" /><path d="M700.74 570.508v16.8c-19.638-8.136-39.484-15.887-59.292-23.709-2.188-0.863-3.114-1.896-3.105-4.06v-16.8c-0.009 2.165 0.918 3.194 3.105 4.059 19.808 7.823 39.656 15.574 59.292 23.71z" fill="#ABB0A9" /><path d="M700.74 570.508v16.8c-19.638-8.136-39.484-15.887-59.292-23.709-2.188-0.863-3.114-1.896-3.105-4.06v-16.8c-0.009 2.165 0.918 3.194 3.105 4.059 19.808 7.823 39.656 15.574 59.292 23.71" fill="#ABB0A9" /><path d="M705.238 571.406v16.8c-1.737-0.034-3.102-0.318-4.498-0.899v-16.8c1.398 0.582 2.761 0.865 4.498 0.899z" fill="#ABB0A9" /><path d="M705.238 571.406v16.8c-1.737-0.034-3.102-0.318-4.498-0.899v-16.8c1.398 0.582 2.761 0.865 4.498 0.899" fill="#ABB0A9" /><path d="M704.943 386.786c5.059 0.205 8.147 3.398 8.468 7.7 0.13 1.676 0.209 3.353 0.209 5.037 0.012 26.625 0.012 53.25 0.012 79.875 0 26.503 0 52.995-0.021 79.499 0 1.93-0.122 3.876-0.383 5.797-0.514 3.783-3.763 6.624-7.99 6.712-1.737-0.033-3.101-0.317-4.498-0.898-19.638-8.136-39.484-15.887-59.292-23.71-2.188-0.863-3.114-1.895-3.105-4.059 0.029-21.194 0.048-42.394 0.048-63.593 0-21.196-0.019-42.396-0.057-63.597-0.012-2.349 1.058-3.369 3.375-4.286 19.534-7.708 39.131-15.32 58.465-23.413a15.663 15.663 0 0 1 1.894-0.653c0.313-0.083 0.62-0.152 0.924-0.21 0.988-0.154 1.478-0.195 1.951-0.201z" fill="#F8F6C6" /><path d="M283.89 575.238v-1.671-0.836-1.671-1.673-0.836-1.672-1.671-0.837-1.672-1.671-0.835-1.672l0.001 6.496c0 15.563 12.711 26.904 30.542 26.914 45.646 0.028 91.289 0.035 136.935 0.035 52.165 0 104.332-0.011 156.495-0.011 8.479 0.01 15.998-2.209 21.552-7.875 3.498-3.568 6.27-7.67 9.605-11.836v16.801c-3.337 4.165-6.107 8.268-9.605 11.835-5.554 5.666-13.072 7.885-21.552 7.875-52.163 0-104.33 0.012-156.495 0.012-45.646 0-91.289-0.009-136.935-0.035-17.831-0.011-30.542-11.35-30.542-26.914l-0.001-6.58z" fill="#ABB0A9" /><path d="M639.02 572.246v16.8c-2.533 3.162-4.741 6.29-7.19 9.177v-16.801c2.447-2.886 4.655-6.014 7.19-9.176M631.828 581.422v16.801a48.934 48.934 0 0 1-2.415 2.659 24.284 24.284 0 0 1-4.245 3.452v-16.801a24.004 24.004 0 0 0 4.245-3.452 48.563 48.563 0 0 0 2.415-2.659M625.168 587.533v16.801a25.502 25.502 0 0 1-4.965 2.445v-16.8a25.506 25.506 0 0 0 4.965-2.446M620.203 589.979v16.8c-2.089 0.769-4.301 1.294-6.614 1.609v-16.8c2.313-0.316 4.525-0.84 6.614-1.609M613.588 591.59v16.8a42.108 42.108 0 0 1-5.727 0.367c-52.163 0-104.33 0.011-156.496 0.011-45.646 0-91.287-0.009-136.933-0.036-17.832-0.009-30.542-11.349-30.542-26.913V558.44v6.578c0 15.563 12.712 26.904 30.542 26.913 45.646 0.03 91.289 0.037 136.933 0.037 52.167 0 104.333-0.012 156.496-0.012a41.93 41.93 0 0 0 5.727-0.366" fill="#ABB0A9" /><path d="M740.273 563.114c0.904 17.084-14.377 32.006-34.868 32.006-5.312 0-10.964-0.999-16.781-3.225-15.693-5.997-31.187-12.396-46.781-18.604-1.18-0.472-2.396-0.89-2.823-1.047-3.336 4.164-6.105 8.267-9.604 11.835-5.554 5.666-13.071 7.885-21.551 7.875-52.164 0-104.33 0.012-156.495 0.012-45.646 0-91.289-0.009-136.935-0.037-17.832-0.009-30.542-11.348-30.542-26.913-0.021-57.292 0.241-114.583-0.203-171.867-0.101-13.738 13.97-27.036 31.074-27.036 36.025 0.14 71.927 0.179 107.815 0.179 40.12 0 80.227-0.046 120.348-0.046h6.556v-5.85c-0.014-6.721-0.072-13.453 0-20.174 0.026-3.442-1.692-5.196-5.601-5.196-0.744 0.012-1.172 0.016-1.599 0.016-1.066 0-2.13-0.022-3.196-0.022-80.197 0-160.384 0.009-240.569 0.009-10.313 0-14.889-3.99-14.596-12.719 0.171-5.046 4.639-9.411 10.391-10.083 0.85-0.101 1.716-0.119 2.583-0.119 0.481 0 0.962 0.005 1.441 0.005 38.109 0 76.229 0.004 114.339 0.004 44.473 0 88.931-0.007 133.396-0.039 8.479 0 15.756 1.929 21.813 7.323 5.293 4.713 8.094 10.11 8.034 16.683-0.061 8.528-0.011 17.066-0.011 25.603v4.557c6.029 0 11.883 0.169 17.654 0.169 3.521 0 7.01-0.063 10.488-0.265 0.903-0.052 1.799-0.08 2.682-0.08 14.857 0 26.229 7.373 31.328 20.217 1.441-0.523 2.894-1.012 4.313-1.58a30947.279 30947.279 0 0 0 46.761-18.645c4.51-1.806 10.17-2.946 16.104-2.946 9.289 0 19.242 2.794 26.484 10.201 5.484 5.614 8.285 11.793 8.275 19.1-0.05 32.588-0.021 65.185-0.021 97.771 0.005 24.314-0.983 48.661 0.297 72.928zM611.955 399.227c0-0.512 0.006-1.021 0.006-1.531 0-0.655-0.013-1.309-0.057-1.96-0.322-4.514-1.794-5.919-6.967-6.538a20.732 20.732 0 0 0-1.434-0.119 43.882 43.882 0 0 0-2.056-0.048h-1.42a1606508.973 1606508.973 0 0 0-277.683 0c-1.644 0-3.276 0.079-4.919 0.14-4.758 0.183-6.925 2.531-7.118 6.477a83.298 83.298 0 0 0-0.08 3.876v85.333c0 15.675-0.008 31.349-0.008 47.026 0 9.406 0.004 18.813 0.018 28.22 0.009 7.359 1.805 8.881 10.211 8.976 0.398 0.004 0.798 0.004 1.195 0.004 0.799 0 1.592-0.004 2.392-0.004h137.048c46.289 0 92.565 0 138.841-0.011 1.794 0 3.579-0.096 5.362-0.163 4.416-0.176 6.382-2.375 6.571-5.998 0.07-1.293 0.081-2.585 0.081-3.877 0.017-53.269 0.017-106.536 0.017-159.803m101.657 159.67c0.021-26.502 0.021-52.996 0.021-79.499 0-26.625 0-53.251-0.011-79.875 0-1.684-0.081-3.361-0.211-5.037-0.319-4.301-3.408-7.496-7.89-7.691-1.054-0.001-1.541 0.036-2.041 0.111-0.791 0.14-1.1 0.212-1.411 0.295-0.279 0.075-0.563 0.161-0.848 0.255-0.345 0.116-0.693 0.249-1.046 0.396-19.335 8.093-38.932 15.705-58.465 23.413-2.318 0.917-3.387 1.94-3.376 4.287 0.039 21.2 0.057 42.399 0.057 63.597 0 21.199-0.018 42.396-0.047 63.594-0.01 2.164 0.918 3.192 3.105 4.059 19.806 7.822 39.652 15.574 59.292 23.709 1.396 0.582 2.76 0.863 4.04 0.897 4.688-0.086 7.934-2.928 8.446-6.711 0.263-1.924 0.385-3.869 0.385-5.8" fill="#CDD2C6" /><path d="M740.313 564.557v16.807c0 16.475-14.993 30.563-34.906 30.563-5.313 0-10.965-0.999-16.782-3.224-15.694-5.998-31.188-12.396-46.781-18.604-1.18-0.472-2.397-0.89-2.821-1.047v-16.8c0.424 0.157 1.643 0.575 2.821 1.047 15.595 6.207 31.087 12.605 46.781 18.604 5.817 2.225 11.472 3.224 16.782 3.224 19.911-0.007 34.906-14.099 34.906-30.57z" fill="#ABB0A9" /><path d="M740.313 564.557v16.801c0 0.56-0.019 1.119-0.053 1.675v-16.8a27.51 27.51 0 0 0 0.053-1.676M740.26 566.231v16.8c-0.378 6.127-2.828 11.859-6.814 16.579v-16.8c3.984-4.718 6.434-10.453 6.814-16.579M733.444 582.81v16.802a33.025 33.025 0 0 1-7.449 6.487l0.003-16.8a33.064 33.064 0 0 0 7.446-6.489M725.995 589.299v16.8a35.852 35.852 0 0 1-6.976 3.451v-16.801a35.85 35.85 0 0 0 6.976-3.45" fill="#ABB0A9" /><path d="M719.021 592.749v16.801a38.473 38.473 0 0 1-8.081 2v-16.8a38.505 38.505 0 0 0 8.081-2.001M710.939 594.748v16.8a40.893 40.893 0 0 1-5.534 0.372c-5.312 0-10.964-0.999-16.781-3.224-15.693-5.998-31.187-12.396-46.781-18.604-1.18-0.472-2.396-0.89-2.823-1.047v-16.8c0.427 0.157 1.645 0.575 2.823 1.047 15.595 6.207 31.088 12.605 46.781 18.604 5.817 2.226 11.471 3.225 16.781 3.225a41.044 41.044 0 0 0 5.534-0.373" fill="#ABB0A9" /></svg>